<svg width="335" height="309" viewBox="0 0 335 309" fill="none" xmlns="http://www.w3.org/2000/svg">
<path d="M140.24 14.4099H12.4902V26.1999H140.24V14.4099Z" fill="white"/>
<path d="M140.24 36.3701H12.4902V48.1601H140.24V36.3701Z" fill="white"/>
<path d="M199.66 58.3201H12.4902V70.1101H199.66V58.3201Z" fill="white"/>
<path d="M199.66 80.27H12.4902V92.06H199.66V80.27Z" fill="white"/>
<path d="M199.66 102.23H12.4902V114.02H199.66V102.23Z" fill="white"/>
<path d="M199.66 124.18H12.4902V135.97H199.66V124.18Z" fill="white"/>
<path d="M152.99 36.8899L153.06 35.7999C154.57 32.4599 156.07 29.1199 157.59 25.7899C157.83 25.2599 157.83 25.0099 157.14 24.9399C155.94 24.8099 155.23 24.0099 155.3 22.9999C155.37 21.9899 156.18 21.3099 157.37 21.2999C158.67 21.2899 159.97 21.2599 161.26 21.2999C162.03 21.3199 162.79 21.1299 163.44 20.7099C165.15 19.5999 166.91 18.6499 169.07 18.9399C169.61 19.0099 169.82 18.7099 169.81 18.1799C169.79 17.6299 169.84 17.0799 169.81 16.5299C169.75 15.5599 170.11 14.8599 170.98 14.4199L172.28 14.4399C173.13 14.8799 173.49 15.5799 173.42 16.5399C173.4 16.8299 173.42 17.1199 173.42 17.3999C173.42 18.9199 173.42 18.9699 174.86 18.9399C176.08 18.9199 177.29 19.2199 178.33 19.8699C178.84 20.1899 179.39 20.4499 179.9 20.7799C180.49 21.1699 181.2 21.3199 181.91 21.2999C183.22 21.2599 184.54 21.2799 185.86 21.2999C187.05 21.3099 187.87 21.9899 187.93 22.9999C188 24.0099 187.29 24.8099 186.09 24.9399C185.39 25.0199 185.41 25.2699 185.65 25.7999C187.1 28.9799 188.53 32.1599 189.97 35.3399C190.38 36.2599 190.18 37.3699 189.4 38.0099C189.4 38.0099 189.39 38.0099 189.38 38.0199C186.13 40.6599 180.3 40.6699 177.06 38.0299C176.15 37.2899 175.96 36.5699 176.43 35.4599C176.76 34.6899 177.11 33.9299 177.46 33.1699C178.58 30.6899 179.7 28.2099 180.81 25.7199C180.93 25.4499 181.28 25.0299 180.65 24.9499C179.18 24.7699 178.03 23.8999 176.82 23.1899C176.1 22.7699 175.28 22.5799 174.45 22.6199C173.44 22.6699 173.42 22.6699 173.42 23.7299C173.42 30.1999 173.42 36.6599 173.42 43.1299C173.42 43.8499 174 44.4399 174.72 44.4399C176.19 44.4399 177.66 44.4199 179.12 44.4699C180.05 44.4999 180.67 45.0099 180.89 45.7699C181.12 46.5499 180.85 47.2599 180.11 47.8299C180.01 47.9099 179.9 47.9899 179.79 48.0599C174.34 48.0599 169.41 48.1099 163.96 48.1099C163.48 48.0599 163.23 47.9099 163.13 47.8299C162.39 47.2599 162.13 46.5499 162.35 45.7699C162.57 45.0099 163.19 44.4999 164.12 44.4699C165.64 44.4199 167.16 44.4499 168.68 44.4399C169.31 44.4399 169.82 43.9199 169.82 43.2899C169.82 36.7699 169.82 30.2499 169.82 23.7399C169.82 23.5799 169.82 23.4299 169.82 23.2699C169.82 22.8499 169.62 22.6599 169.2 22.6399C168.2 22.5999 167.26 22.6699 166.35 23.2399C165.3 23.8999 164.27 24.6999 162.98 24.8599C162.2 24.9599 162.19 25.2499 162.49 25.8799C163.91 28.9499 165.28 32.0399 166.67 35.1299C167.19 36.2899 166.79 37.6499 165.74 38.3699C162.51 40.5799 157.52 40.5699 154.31 38.3499C153.76 37.9699 153.25 37.5599 153.01 36.8999L152.99 36.8899ZM160.03 36.3699C160.74 36.2999 161.5 36.2399 162.23 36.0299C162.69 35.8999 162.89 35.6799 162.65 35.1699C161.85 33.4399 161.08 31.6899 160.29 29.9399C160.23 29.7999 160.18 29.6099 160 29.6099C159.82 29.6099 159.77 29.8099 159.71 29.9399C158.94 31.6599 158.18 33.3799 157.39 35.0999C157.13 35.6699 157.34 35.9199 157.88 36.0499C158.57 36.2199 159.27 36.3099 160.02 36.3699H160.03ZM183.25 36.3699C183.95 36.3099 184.68 36.2199 185.39 36.0299C185.91 35.8899 186.06 35.6299 185.83 35.1099C185.05 33.3999 184.28 31.6699 183.51 29.9499C183.45 29.8099 183.4 29.6199 183.23 29.6099C183.04 29.5899 182.99 29.7899 182.93 29.9199C182.13 31.6899 181.35 33.4499 180.55 35.2199C180.36 35.6399 180.5 35.8599 180.9 35.9899C181.65 36.2399 182.44 36.2899 183.25 36.3699Z" fill="#FFC233"/>
<path d="M198.93 1H13C6.37258 1 1 6.37258 1 13V135.6C1 142.227 6.37258 147.6 13 147.6H198.93C205.557 147.6 210.93 142.227 210.93 135.6V13C210.93 6.37258 205.557 1 198.93 1Z" stroke="white" stroke-width="0.99" stroke-miterlimit="10"/>
<path d="M328.04 189.5H184.92V201.29H328.04V189.5Z" fill="url(#paint0_linear_838_37)"/>
<path d="M269.05 211.45H184.92V223.24H269.05V211.45Z" fill="url(#paint1_linear_838_37)"/>
<path d="M328.04 253.34H184.92V265.13H328.04V253.34Z" fill="url(#paint2_linear_838_37)"/>
<path d="M251.27 275.3H184.92V287.09H251.27V275.3Z" fill="url(#paint3_linear_838_37)"/>
<path d="M147.76 211.22L147.81 210.44C148.89 208.05 149.97 205.66 151.05 203.27C151.22 202.89 151.23 202.71 150.73 202.66C149.87 202.57 149.37 201.99 149.41 201.27C149.46 200.55 150.04 200.06 150.9 200.05C151.83 200.05 152.76 200.02 153.69 200.05C154.24 200.07 154.79 199.93 155.25 199.63C156.47 198.84 157.74 198.15 159.28 198.36C159.67 198.41 159.82 198.19 159.81 197.82C159.8 197.43 159.83 197.03 159.81 196.64C159.77 195.95 160.03 195.44 160.65 195.13H161.58C162.19 195.46 162.45 195.96 162.39 196.64C162.37 196.84 162.39 197.05 162.39 197.26C162.39 198.35 162.39 198.39 163.42 198.36C164.29 198.34 165.16 198.56 165.9 199.03C166.27 199.26 166.66 199.45 167.02 199.68C167.44 199.96 167.95 200.07 168.46 200.05C169.4 200.02 170.34 200.04 171.29 200.05C172.14 200.05 172.73 200.54 172.78 201.27C172.83 201.99 172.32 202.57 171.47 202.66C170.97 202.71 170.98 202.9 171.15 203.27C172.19 205.54 173.21 207.82 174.24 210.1C174.54 210.76 174.39 211.55 173.83 212.01C173.83 212.01 173.83 212.01 173.82 212.01C171.49 213.9 167.32 213.91 165 212.01C164.35 211.48 164.21 210.97 164.55 210.17C164.78 209.62 165.04 209.08 165.29 208.53C166.09 206.75 166.89 204.98 167.69 203.2C167.78 203.01 168.02 202.71 167.58 202.65C166.53 202.52 165.71 201.89 164.84 201.39C164.33 201.09 163.73 200.95 163.14 200.98C162.42 201.01 162.41 201.02 162.41 201.78C162.41 206.41 162.41 211.04 162.41 215.67C162.41 216.18 162.82 216.61 163.34 216.61C164.39 216.61 165.44 216.6 166.49 216.63C167.15 216.65 167.6 217.02 167.76 217.56C167.92 218.12 167.73 218.63 167.2 219.03C167.13 219.09 167.05 219.14 166.97 219.2C163.07 219.2 159.54 219.23 155.63 219.23C155.29 219.19 155.11 219.09 155.03 219.03C154.5 218.62 154.31 218.11 154.47 217.56C154.63 217.02 155.07 216.65 155.74 216.63C156.83 216.6 157.92 216.61 159 216.61C159.45 216.61 159.82 216.24 159.82 215.79C159.82 211.12 159.82 206.46 159.82 201.79C159.82 201.68 159.82 201.57 159.82 201.45C159.82 201.15 159.68 201.01 159.37 201C158.65 200.97 157.98 201.02 157.33 201.43C156.58 201.9 155.84 202.48 154.92 202.59C154.36 202.66 154.36 202.87 154.57 203.32C155.58 205.52 156.57 207.73 157.56 209.94C157.94 210.77 157.65 211.74 156.89 212.26C154.58 213.84 151.01 213.84 148.71 212.25C148.32 211.98 147.95 211.69 147.78 211.21L147.76 211.22ZM152.81 210.85C153.32 210.8 153.86 210.76 154.39 210.6C154.72 210.5 154.86 210.35 154.69 209.99C154.12 208.75 153.57 207.5 153 206.25C152.96 206.15 152.92 206.01 152.79 206.01C152.66 206.01 152.63 206.15 152.58 206.25C152.03 207.48 151.48 208.72 150.92 209.94C150.73 210.35 150.89 210.52 151.27 210.62C151.76 210.74 152.26 210.81 152.8 210.85H152.81ZM169.43 210.85C169.93 210.81 170.45 210.74 170.96 210.61C171.33 210.51 171.44 210.32 171.27 209.95C170.71 208.72 170.16 207.49 169.61 206.26C169.57 206.16 169.53 206.02 169.41 206.01C169.27 206 169.24 206.14 169.2 206.23C168.63 207.49 168.07 208.76 167.49 210.02C167.35 210.32 167.45 210.48 167.74 210.57C168.28 210.75 168.84 210.79 169.42 210.84L169.43 210.85Z" fill="#FFC233"/>
<path d="M147.76 273.41L147.81 272.63C148.89 270.24 149.97 267.85 151.05 265.46C151.22 265.08 151.23 264.9 150.73 264.85C149.87 264.76 149.37 264.18 149.41 263.46C149.46 262.74 150.04 262.25 150.9 262.24C151.83 262.24 152.76 262.21 153.69 262.24C154.24 262.26 154.79 262.12 155.25 261.82C156.47 261.03 157.74 260.34 159.28 260.55C159.67 260.6 159.82 260.38 159.81 260.01C159.8 259.62 159.83 259.22 159.81 258.83C159.77 258.14 160.03 257.63 160.65 257.32H161.58C162.19 257.65 162.45 258.15 162.39 258.83C162.37 259.03 162.39 259.24 162.39 259.45C162.39 260.54 162.39 260.58 163.42 260.55C164.29 260.53 165.16 260.75 165.9 261.22C166.27 261.45 166.66 261.64 167.02 261.87C167.44 262.15 167.95 262.26 168.46 262.24C169.4 262.21 170.34 262.23 171.29 262.24C172.14 262.24 172.73 262.73 172.78 263.46C172.83 264.18 172.32 264.76 171.47 264.85C170.97 264.9 170.98 265.09 171.15 265.46C172.19 267.73 173.21 270.01 174.24 272.29C174.54 272.95 174.39 273.74 173.83 274.2C173.83 274.2 173.83 274.2 173.82 274.2C171.49 276.09 167.32 276.1 165 274.2C164.35 273.67 164.21 273.16 164.55 272.36C164.78 271.81 165.04 271.27 165.29 270.72C166.09 268.94 166.89 267.17 167.69 265.39C167.78 265.2 168.02 264.9 167.58 264.84C166.53 264.71 165.71 264.08 164.84 263.58C164.33 263.28 163.73 263.14 163.14 263.17C162.42 263.2 162.41 263.21 162.41 263.97C162.41 268.6 162.41 273.23 162.41 277.86C162.41 278.37 162.82 278.8 163.34 278.8C164.39 278.8 165.44 278.79 166.49 278.82C167.15 278.84 167.6 279.21 167.76 279.75C167.92 280.31 167.73 280.82 167.2 281.22C167.13 281.28 167.05 281.33 166.97 281.39C163.07 281.39 159.54 281.42 155.63 281.42C155.29 281.38 155.11 281.28 155.03 281.22C154.5 280.81 154.31 280.3 154.47 279.75C154.63 279.21 155.07 278.84 155.74 278.82C156.83 278.79 157.92 278.8 159 278.8C159.45 278.8 159.82 278.43 159.82 277.98C159.82 273.31 159.82 268.65 159.82 263.98C159.82 263.87 159.82 263.76 159.82 263.64C159.82 263.34 159.68 263.2 159.37 263.19C158.65 263.16 157.98 263.21 157.33 263.62C156.58 264.09 155.84 264.67 154.92 264.78C154.36 264.85 154.36 265.06 154.57 265.51C155.58 267.71 156.57 269.92 157.56 272.13C157.94 272.96 157.65 273.93 156.89 274.45C154.58 276.03 151.01 276.03 148.71 274.44C148.32 274.17 147.95 273.88 147.78 273.4L147.76 273.41ZM152.81 273.04C153.32 272.99 153.86 272.95 154.39 272.79C154.72 272.69 154.86 272.54 154.69 272.18C154.12 270.94 153.57 269.69 153 268.44C152.96 268.34 152.92 268.2 152.79 268.2C152.66 268.2 152.63 268.34 152.58 268.44C152.03 269.67 151.48 270.91 150.92 272.13C150.73 272.54 150.89 272.71 151.27 272.81C151.76 272.93 152.26 273 152.8 273.04H152.81ZM169.43 273.04C169.93 273 170.45 272.93 170.96 272.8C171.33 272.7 171.44 272.51 171.27 272.14C170.71 270.91 170.16 269.68 169.61 268.45C169.57 268.35 169.53 268.21 169.41 268.2C169.27 268.19 169.24 268.33 169.2 268.42C168.63 269.68 168.07 270.95 167.49 272.21C167.35 272.51 167.45 272.67 167.74 272.76C168.28 272.94 168.84 272.98 169.42 273.03L169.43 273.04Z" fill="#FFC233"/>
<path d="M322.19 171.89H139.26C132.942 171.89 127.82 177.012 127.82 183.33V296.21C127.82 302.528 132.942 307.65 139.26 307.65H322.19C328.508 307.65 333.63 302.528 333.63 296.21V183.33C333.63 177.012 328.508 171.89 322.19 171.89Z" stroke="white" stroke-width="0.94" stroke-miterlimit="10"/>
<path d="M34.5698 167.71H46.7299V230.77C46.7299 240.48 54.6098 248.36 64.3198 248.36H86.0198V238.08L91.6599 242.71L105.97 254.44L86.0198 270.81V260.53H67.4998C66.4598 260.64 65.3998 260.7 64.3298 260.7C47.9098 260.7 34.5698 247.34 34.5698 230.94V167.73V167.71Z" fill="#DDA266"/>
<defs>
<linearGradient id="paint0_linear_838_37" x1="184.92" y1="195.39" x2="328.04" y2="195.39" gradientUnits="userSpaceOnUse">
<stop stop-color="#FFC233"/>
<stop offset="0.05" stop-color="#FFC233" stop-opacity="0.81"/>
<stop offset="0.15" stop-color="#FFC233" stop-opacity="0.4761"/>
<stop offset="0.26" stop-color="#FFC233" stop-opacity="0.25"/>
<stop offset="0.37" stop-color="#FFC233" stop-opacity="0.1225"/>
<stop offset="0.48" stop-color="#FFC233" stop-opacity="0.0484"/>
<stop offset="0.6" stop-color="#FFC233" stop-opacity="0.0144"/>
<stop offset="0.72" stop-color="#FFC233" stop-opacity="0.01"/>
<stop offset="0.85" stop-color="#FFC233" stop-opacity="0.01"/>
<stop offset="1" stop-color="#FFC233" stop-opacity="0"/>
</linearGradient>
<linearGradient id="paint1_linear_838_37" x1="184.92" y1="217.34" x2="269.05" y2="217.34" gradientUnits="userSpaceOnUse">
<stop stop-color="#FFC233"/>
<stop offset="0.05" stop-color="#FFC233" stop-opacity="0.81"/>
<stop offset="0.15" stop-color="#FFC233" stop-opacity="0.4761"/>
<stop offset="0.26" stop-color="#FFC233" stop-opacity="0.25"/>
<stop offset="0.37" stop-color="#FFC233" stop-opacity="0.1225"/>
<stop offset="0.48" stop-color="#FFC233" stop-opacity="0.0484"/>
<stop offset="0.6" stop-color="#FFC233" stop-opacity="0.0144"/>
<stop offset="0.72" stop-color="#FFC233" stop-opacity="0.01"/>
<stop offset="0.85" stop-color="#FFC233" stop-opacity="0.01"/>
<stop offset="1" stop-color="#FFC233" stop-opacity="0"/>
</linearGradient>
<linearGradient id="paint2_linear_838_37" x1="184.92" y1="259.24" x2="328.04" y2="259.24" gradientUnits="userSpaceOnUse">
<stop stop-color="#FFC233"/>
<stop offset="0.05" stop-color="#FFC233" stop-opacity="0.81"/>
<stop offset="0.15" stop-color="#FFC233" stop-opacity="0.4761"/>
<stop offset="0.26" stop-color="#FFC233" stop-opacity="0.25"/>
<stop offset="0.37" stop-color="#FFC233" stop-opacity="0.1225"/>
<stop offset="0.48" stop-color="#FFC233" stop-opacity="0.0484"/>
<stop offset="0.6" stop-color="#FFC233" stop-opacity="0.0144"/>
<stop offset="0.72" stop-color="#FFC233" stop-opacity="0.01"/>
<stop offset="0.85" stop-color="#FFC233" stop-opacity="0.01"/>
<stop offset="1" stop-color="#FFC233" stop-opacity="0"/>
</linearGradient>
<linearGradient id="paint3_linear_838_37" x1="184.92" y1="281.19" x2="251.26" y2="281.19" gradientUnits="userSpaceOnUse">
<stop stop-color="#FFC233"/>
<stop offset="0.05" stop-color="#FFC233" stop-opacity="0.81"/>
<stop offset="0.15" stop-color="#FFC233" stop-opacity="0.4761"/>
<stop offset="0.26" stop-color="#FFC233" stop-opacity="0.25"/>
<stop offset="0.37" stop-color="#FFC233" stop-opacity="0.1225"/>
<stop offset="0.48" stop-color="#FFC233" stop-opacity="0.0484"/>
<stop offset="0.6" stop-color="#FFC233" stop-opacity="0.0144"/>
<stop offset="0.72" stop-color="#FFC233" stop-opacity="0.01"/>
<stop offset="0.85" stop-color="#FFC233" stop-opacity="0.01"/>
<stop offset="1" stop-color="#FFC233" stop-opacity="0"/>
</linearGradient>
</defs>
</svg>
